<svg xmlns="http://www.w3.org/2000/svg" viewBox="0 0 64 64" id="parking-location"><g data-name="Outline"><circle cx="32" cy="57" r="1"></circle><path d="M42.634 45.376a23 23 0 1 0-21.268 0C8.512 46.344 2 49.073 2 53.5 2 60.525 18.314 62 32 62s30-1.475 30-8.5c0-4.427-6.512-7.156-19.366-8.124ZM11 25a21 21 0 1 1 29.72 19.1.97.97 0 0 0-.292.2l-7.77 7.8a.993.993 0 0 1-1.266.047l-2.8-2.8-.006-.006-5.017-5.027a.97.97 0 0 0-.292-.2A21.064 21.064 0 0 1 11 25Zm21 35c-17.271 0-28-2.49-28-6.5 0-3.276 7.167-5.553 19.668-6.267l1.942 1.946C19.329 49.532 11 50.555 11 53.5c0 3.326 10.618 4.2 16.948 4.429h.036a1 1 0 0 0 .035-2C18.445 55.588 14 54.214 13.107 53.5c.88-.7 5.19-2.036 14.412-2.409l2.506 2.509a2.966 2.966 0 0 0 1.956.732 3.093 3.093 0 0 0 2.043-.779l2.458-2.464c9.218.375 13.531 1.711 14.411 2.411-.9.714-5.337 2.088-14.91 2.431a1 1 0 0 0 .035 2h.036C42.383 57.7 53 56.826 53 53.5c0-2.944-8.328-3.968-14.609-4.321l1.942-1.946C52.833 47.947 60 50.224 60 53.5c0 4.01-10.729 6.5-28 6.5Z"></path><path d="M51 25a19 19 0 1 0-19 19 19.021 19.021 0 0 0 19-19Zm-36 0a17 17 0 1 1 17 17 17.019 17.019 0 0 1-17-17Z"></path><path d="M42 20.5a8.009 8.009 0 0 0-8-8h-7a3 3 0 0 0-3 3v19a3 3 0 0 0 6 0v-6h4a8.009 8.009 0 0 0 8-8Zm-13 6a1 1 0 0 0-1 1v7a1 1 0 0 1-2 0v-19a1 1 0 0 1 1-1h7a6 6 0 0 1 0 12Z"></path><path d="M38 20.5a4 4 0 0 0-4-4h-5a1 1 0 0 0-1 1v6a1 1 0 0 0 1 1h5a4 4 0 0 0 4-4Zm-8-2h4a2 2 0 0 1 0 4h-4Z"></path></g></svg>